<?xml version="1.0" standalone="no"?>
<!DOCTYPE svg PUBLIC "-//W3C//DTD SVG 20010904//EN"
 "http://www.w3.org/TR/2001/REC-SVG-20010904/DTD/svg10.dtd">
<svg version="1.0" xmlns="http://www.w3.org/2000/svg"
 width="1280.000000pt" height="1280.000000pt" viewBox="0 0 1280.000000 1280.000000"
 preserveAspectRatio="xMidYMid meet">
<metadata>
Created by potrace 1.15, written by Peter Selinger 2001-2017
</metadata>
<g transform="translate(0.000000,1280.000000) scale(0.100000,-0.100000)"
fill="#ebbd40" stroke="none">
<path d="M6085 12269 c-1810 -147 -3440 -1120 -4442 -2650 -526 -805 -844
-1731 -940 -2740 -23 -245 -23 -780 1 -1024 137 -1430 719 -2684 1706 -3676
483 -485 983 -842 1594 -1140 1071 -520 2287 -699 3466 -508 1719 277 3234
1319 4119 2834 436 746 695 1556 788 2465 24 241 24 851 0 1090 -105 1011
-417 1905 -951 2715 -237 360 -453 623 -770 940 -309 308 -569 522 -911 748
-781 516 -1638 823 -2605 933 -169 19 -874 28 -1055 13z m675 -1439 c599 -38
1129 -176 1665 -434 800 -385 1455 -987 1908 -1754 317 -534 511 -1121 594
-1792 25 -205 25 -762 0 -970 -131 -1077 -581 -2001 -1328 -2725 -695 -674
-1569 -1089 -2549 -1211 -282 -35 -780 -29 -1085 12 -1272 172 -2412 892
-3118 1970 -46 71 -96 150 -111 176 l-27 46 53 11 c29 6 107 20 173 31 l120
21 360 178 360 178 491 366 c271 202 501 367 512 367 24 0 15 -38 102 415 39
203 72 371 74 372 1 1 54 -25 117 -57 102 -52 117 -63 122 -89 7 -32 45 -59
102 -71 29 -6 30 -8 27 -50 -2 -24 2 -61 8 -81 12 -36 15 -38 71 -46 l58 -8
-67 -76 c-37 -42 -88 -107 -114 -145 l-46 -69 10 -57 c6 -32 15 -58 20 -58 4
0 20 18 34 40 l27 40 18 -30 c30 -49 44 -30 62 89 10 72 23 120 37 142 l22 34
-6 -105 c-19 -328 -54 -1054 -52 -1057 1 -2 12 -4 23 -5 18 -3 76 69 321 394
164 218 304 410 311 426 33 79 -36 202 -164 295 -44 32 -111 76 -150 99 -38
22 -92 57 -118 76 -46 33 -48 37 -42 71 4 20 22 68 40 106 53 110 60 153 41
230 -21 84 -20 97 8 117 23 17 24 17 186 -162 120 -133 169 -180 189 -182 43
-6 106 30 126 71 l17 36 35 -40 c19 -22 46 -53 58 -70 l23 -30 -141 -557 -142
-556 -57 -82 c-71 -102 -367 -374 -420 -385 -18 -4 -63 -21 -100 -37 -61 -28
-68 -34 -68 -60 0 -17 6 -31 16 -35 8 -3 63 2 120 11 l106 16 124 117 c93 87
150 152 225 255 l100 138 105 332 c57 182 105 333 108 335 5 5 6 -1 71 -317
50 -240 60 -278 83 -303 29 -30 44 -34 62 -12 10 11 6 23 -20 58 -29 41 -35
65 -86 347 -30 167 -54 310 -54 319 0 9 37 136 82 284 l82 267 40 0 c67 0 99
27 121 101 10 35 21 68 25 72 4 4 115 -136 248 -311 l241 -319 183 -160 183
-159 378 -158 378 -157 100 17 c99 17 101 18 142 64 23 26 47 61 54 79 l12 32
-73 53 c-40 30 -105 94 -146 142 -41 49 -197 231 -347 404 -240 278 -307 347
-561 586 -227 214 -324 297 -457 394 -222 161 -214 155 -206 168 4 7 148 -30
461 -120 250 -72 460 -134 466 -139 6 -5 84 -162 174 -349 l164 -341 625 -450
625 -451 345 -140 c332 -135 352 -141 485 -164 137 -22 140 -22 176 -4 32 16
36 22 32 49 -5 35 6 31 -206 61 -149 21 -151 22 -415 131 -146 61 -329 140
-406 177 -135 64 -153 77 -485 336 -190 149 -408 324 -485 389 l-140 120 -158
246 c-158 245 -211 336 -205 350 2 5 236 -59 521 -141 286 -82 521 -148 523
-145 3 3 0 24 -6 49 l-11 44 -232 96 c-148 61 -353 135 -568 203 l-336 108
-41 83 c-22 46 -38 84 -35 84 2 0 64 -43 137 -95 73 -52 138 -95 143 -95 6 0
210 99 454 219 l444 220 223 218 223 218 160 393 c140 345 169 426 239 671
l79 279 -22 78 -23 79 -44 0 -43 0 -67 -265 c-39 -152 -128 -452 -208 -703
l-141 -438 -208 -215 c-205 -212 -208 -215 -360 -310 -140 -87 -175 -104 -413
-195 -144 -54 -267 -99 -273 -99 -7 0 -97 49 -201 109 l-190 109 -183 379
c-132 271 -194 388 -220 415 l-36 37 -38 -19 c-52 -27 -92 -79 -124 -163 -16
-40 -38 -95 -51 -124 l-23 -52 -206 130 c-114 71 -229 141 -256 155 -48 24
-51 24 -78 8 -36 -21 -38 -37 -47 -341 -4 -123 -10 -223 -14 -223 -4 0 -26 6
-48 14 -23 8 -106 24 -186 36 l-146 21 -82 -22 c-59 -15 -112 -40 -182 -82
-88 -54 -107 -71 -179 -161 -44 -56 -81 -103 -83 -105 -2 -2 -61 51 -131 118
-87 83 -142 127 -172 138 -43 17 -44 16 -62 -6 -12 -15 -19 -39 -19 -67 0 -24
-3 -44 -6 -44 -3 0 -27 18 -53 40 -55 46 -97 52 -127 19 -17 -19 -20 -45 -26
-268 -5 -208 -36 -562 -50 -576 -10 -10 -153 112 -229 196 -87 96 -189 255
-189 296 0 12 -4 25 -10 28 -20 13 -9 -39 26 -118 19 -44 62 -119 94 -166 50
-72 79 -101 177 -176 95 -73 119 -96 126 -124 4 -18 7 -35 5 -37 -2 -2 -100
63 -218 144 -200 137 -218 152 -268 222 -29 41 -66 98 -83 125 -16 28 -29 45
-29 39 0 -31 29 -88 87 -167 69 -92 132 -146 388 -329 l121 -86 -17 -174 c-21
-208 -70 -476 -105 -574 -18 -51 -32 -75 -50 -85 -14 -7 -32 -25 -40 -39 -26
-43 -178 -140 -464 -297 -151 -83 -311 -168 -355 -190 -154 -77 -411 -176
-590 -225 l-180 -51 -180 7 c-202 7 -226 2 -205 -44 10 -22 18 -25 78 -28 37
-2 116 -7 175 -10 99 -7 120 -5 250 25 124 27 177 47 421 153 261 113 303 135
665 350 336 200 397 240 474 311 l89 82 -29 -54 c-27 -51 -50 -69 -403 -326
l-375 -273 -460 -256 -460 -257 -158 -37 -157 -37 -24 41 c-13 23 -51 95 -84
161 -228 458 -376 945 -443 1465 -27 209 -37 668 -20 887 84 1053 513 2011
1240 2765 877 911 2146 1407 3401 1328z m563 -3345 c76 -158 136 -289 134
-291 -1 -2 -95 63 -208 143 l-206 145 49 127 c66 171 67 173 80 169 7 -3 75
-134 151 -293z m-631 154 c101 -66 185 -122 187 -124 2 -2 -41 -99 -95 -215
l-98 -212 -35 6 c-20 3 -53 11 -74 17 -33 9 -38 14 -33 32 2 12 11 61 17 109
16 107 8 123 -57 115 l-42 -4 5 181 c5 172 12 216 33 216 5 0 91 -54 192 -121z
m584 -414 l259 -185 57 -117 c32 -64 56 -118 54 -120 -4 -4 -747 224 -754 232
-8 7 112 375 121 375 2 0 120 -83 263 -185z m-1946 -355 c0 -21 -15 -9 -110
85 -81 81 -110 116 -110 135 0 21 15 9 110 -85 81 -81 110 -116 110 -135z
m-362 142 l54 -47 -57 -330 c-31 -181 -59 -338 -63 -347 -6 -16 -9 -16 -33 5
l-26 22 23 215 c12 118 26 286 29 373 4 86 10 157 14 157 3 0 30 -22 59 -48z
m250 -224 c62 -73 72 -91 72 -123 0 -38 69 -171 125 -240 l24 -31 -78 -49
c-97 -61 -129 -113 -132 -219 -1 -36 -4 -66 -6 -66 -13 0 -243 154 -243 163 0
7 26 169 57 360 l58 349 25 -30 c14 -16 58 -68 98 -114z m-318 -601 c0 -17 -2
-18 -17 -6 -43 32 -52 42 -47 50 9 15 64 -24 64 -44z m196 -89 c62 -40 113
-79 114 -87 0 -18 -18 -10 -125 56 -105 66 -126 83 -119 94 8 14 11 13 130
-63z m-227 38 l23 -24 -62 -269 c-34 -147 -64 -270 -67 -273 -3 -3 -3 11 0 30
4 19 18 143 32 275 34 319 31 307 74 261z m725 -462 c33 -11 96 -56 199 -141
183 -151 210 -181 201 -220 -5 -19 -379 -537 -551 -762 -9 -12 -9 12 -2 94 22
237 89 1010 89 1026 0 23 4 23 64 3z"/>
</g>
</svg>
