<?xml version="1.0" standalone="no"?>
<!DOCTYPE svg PUBLIC "-//W3C//DTD SVG 20010904//EN"
 "http://www.w3.org/TR/2001/REC-SVG-20010904/DTD/svg10.dtd">
<svg version="1.0" xmlns="http://www.w3.org/2000/svg"
 width="955.000000pt" height="1280.000000pt" viewBox="0 0 955.000000 1280.000000"
 preserveAspectRatio="xMidYMid meet">
<metadata>
Created by potrace 1.15, written by Peter Selinger 2001-2017
</metadata>
<g transform="translate(0.000000,1280.000000) scale(0.100000,-0.100000)"
fill="#038543" stroke="none">
<path d="M4065 12793 c-106 -15 -250 -71 -342 -134 -151 -104 -252 -247 -309
-436 -36 -120 -38 -289 -5 -408 99 -356 395 -585 756 -587 218 -1 410 77 560
227 150 150 229 344 228 560 -2 383 -265 698 -644 770 -76 14 -175 17 -244 8z"/>
<path d="M2368 11945 c-40 -53 -73 -100 -73 -105 0 -5 47 -47 105 -93 229
-183 407 -363 459 -465 32 -63 82 -222 107 -342 94 -447 77 -1061 -47 -1750
-55 -303 -136 -582 -257 -885 -213 -534 -471 -1014 -1112 -2071 -696 -1146
-953 -1618 -1196 -2202 -313 -750 -423 -1478 -304 -2007 111 -494 388 -959
690 -1160 399 -265 1156 -422 2340 -487 326 -17 2688 -17 2980 0 964 58 1598
168 2028 353 278 119 439 254 612 512 43 65 81 116 84 115 2 -2 8 1 13 6 5 5
3 6 -4 2 -20 -11 -15 4 21 67 18 31 36 54 40 50 4 -4 4 -1 1 8 -3 8 9 46 26
84 17 39 47 111 66 160 18 50 31 77 28 61 -4 -16 -24 -75 -47 -130 -50 -126
-54 -140 -29 -95 73 132 160 416 197 644 24 146 24 477 0 655 -75 550 -243
1056 -572 1720 -208 420 -425 803 -922 1621 -476 786 -671 1128 -865 1514
-352 705 -509 1204 -592 1888 -86 705 -48 1291 108 1638 31 71 90 164 131 208
17 19 25 30 17 26 -61 -35 93 110 269 253 58 47 109 89 114 93 9 8 -143 211
-155 207 -20 -7 -239 -188 -348 -288 -129 -119 -243 -252 -290 -340 -72 -136
-144 -411 -178 -685 -24 -194 -24 -709 1 -950 88 -865 239 -1380 636 -2176
199 -397 400 -749 933 -1629 l246 -405 -3086 -3 c-1698 -1 -3088 0 -3091 3 -3
2 64 118 148 257 698 1155 803 1336 1024 1778 390 780 540 1287 631 2130 21
193 31 687 16 862 -27 340 -93 624 -190 817 -71 139 -296 367 -578 584 l-62
47 -73 -95z m4022 -468 c0 -1 -24 -25 -52 -52 l-53 -50 50 53 c46 48 55 57 55
49z m-122 -137 c-22 -30 -35 -41 -22 -17 9 16 36 47 41 47 2 0 -6 -13 -19 -30z
m-40 -65 c-6 -14 -13 -23 -15 -21 -5 5 15 46 22 46 3 0 -1 -11 -7 -25z m-121
-417 c-3 -7 -5 -2 -5 12 0 14 2 19 5 13 2 -7 2 -19 0 -25z m-10 -60 c-3 -8 -6
-5 -6 6 -1 11 2 17 5 13 3 -3 4 -12 1 -19z m-10 -65 c-3 -10 -5 -4 -5 12 0 17
2 24 5 18 2 -7 2 -21 0 -30z m-10 -110 c-3 -10 -5 -4 -5 12 0 17 2 24 5 18 2
-7 2 -21 0 -30z m-10 -115 c-2 -13 -4 -3 -4 22 0 25 2 35 4 23 2 -13 2 -33 0
-45z m0 -520 c-2 -13 -4 -3 -4 22 0 25 2 35 4 23 2 -13 2 -33 0 -45z m10 -125
c-3 -10 -5 -2 -5 17 0 19 2 27 5 18 2 -10 2 -26 0 -35z m10 -130 c-3 -10 -5
-4 -5 12 0 17 2 24 5 18 2 -7 2 -21 0 -30z m10 -75 c-3 -7 -5 -2 -5 12 0 14 2
19 5 13 2 -7 2 -19 0 -25z m10 -90 c-3 -8 -6 -5 -6 6 -1 11 2 17 5 13 3 -3 4
-12 1 -19z m10 -60 c-3 -8 -6 -5 -6 6 -1 11 2 17 5 13 3 -3 4 -12 1 -19z m10
-80 c-3 -8 -6 -5 -6 6 -1 11 2 17 5 13 3 -3 4 -12 1 -19z m10 -60 c-3 -8 -6
-5 -6 6 -1 11 2 17 5 13 3 -3 4 -12 1 -19z m20 -120 c-3 -8 -6 -5 -6 6 -1 11
2 17 5 13 3 -3 4 -12 1 -19z m20 -110 c-3 -8 -6 -5 -6 6 -1 11 2 17 5 13 3 -3
4 -12 1 -19z m2123 -4198 c6 -11 8 -20 6 -20 -3 0 -10 9 -16 20 -6 11 -8 20
-6 20 3 0 10 -9 16 -20z m260 -515 c0 -5 -5 -3 -10 5 -5 8 -10 20 -10 25 0 6
5 3 10 -5 5 -8 10 -19 10 -25z m300 -720 c0 -5 -5 -3 -10 5 -5 8 -10 20 -10
25 0 6 5 3 10 -5 5 -8 10 -19 10 -25z m147 -547 c-3 -8 -6 -5 -6 6 -1 11 2 17
5 13 3 -3 4 -12 1 -19z m10 -40 c-3 -8 -6 -5 -6 6 -1 11 2 17 5 13 3 -3 4 -12
1 -19z m20 -110 c-3 -7 -5 -2 -5 12 0 14 2 19 5 13 2 -7 2 -19 0 -25z m10 -70
c-3 -8 -6 -5 -6 6 -1 11 2 17 5 13 3 -3 4 -12 1 -19z m10 -60 c-3 -8 -6 -5 -6
6 -1 11 2 17 5 13 3 -3 4 -12 1 -19z m10 -85 c-3 -10 -5 -4 -5 12 0 17 2 24 5
18 2 -7 2 -21 0 -30z m10 -105 c-2 -13 -4 -3 -4 22 0 25 2 35 4 23 2 -13 2
-33 0 -45z m10 -280 c-2 -35 -3 -9 -3 57 0 66 1 94 3 63 2 -32 2 -86 0 -120z
m-10 -170 c-2 -13 -4 -5 -4 17 -1 22 1 32 4 23 2 -10 2 -28 0 -40z m-10 -65
c-3 -10 -5 -4 -5 12 0 17 2 24 5 18 2 -7 2 -21 0 -30z m-10 -60 c-3 -10 -5 -4
-5 12 0 17 2 24 5 18 2 -7 2 -21 0 -30z m-17 -88 c-6 -31 -14 -55 -16 -52 -2
2 1 29 7 61 7 31 14 54 16 52 3 -2 -1 -30 -7 -61z m-23 -87 c-3 -8 -6 -5 -6 6
-1 11 2 17 5 13 3 -3 4 -12 1 -19z m-17 -68 c-6 -23 -13 -40 -15 -38 -2 2 1
23 7 46 6 24 13 41 15 38 2 -2 -1 -23 -7 -46z"/>
<path d="M4850 10740 c-465 -72 -651 -631 -321 -961 194 -194 486 -222 715
-68 239 159 318 476 184 733 -43 81 -156 195 -234 234 -111 56 -236 78 -344
62z"/>
<path d="M4126 8934 c-148 -36 -279 -141 -347 -279 -47 -97 -63 -175 -56 -276
14 -186 127 -354 292 -434 238 -117 522 -43 669 173 59 87 87 166 93 272 21
350 -310 627 -651 544z"/>
<path d="M4929 7176 c-120 -35 -218 -118 -272 -234 -25 -54 -32 -83 -35 -152
-8 -179 81 -325 247 -404 61 -28 74 -31 166 -31 79 1 111 5 155 23 164 65 265
215 265 392 0 175 -104 329 -265 391 -68 27 -196 34 -261 15z"/>
<path d="M8836 1453 c-6 -14 -5 -15 5 -6 7 7 10 15 7 18 -3 3 -9 -2 -12 -12z"/>
<path d="M8816 1413 c-6 -14 -5 -15 5 -6 7 7 10 15 7 18 -3 3 -9 -2 -12 -12z"/>
</g>
</svg>
