<?xml version="1.0" encoding="UTF-8"?><svg id="Layer_1" xmlns="http://www.w3.org/2000/svg" viewBox="0 0 688.67 168"><defs><style>.cls-1{stroke-linecap:round;stroke-width:1.63px;}.cls-1,.cls-2{fill:none;stroke:#fff;stroke-miterlimit:10;}.cls-3{fill:#038543;}.cls-4{fill:#ebbd40;}.cls-5{fill:#fff;}.cls-6{fill:#231f20;}.cls-7{fill:#808285;}.cls-2{stroke-width:2px;}</style></defs><rect class="cls-4" x="345.05" width="167.12" height="168"/><rect class="cls-3" x="521.55" width="167.12" height="168"/><g><path class="cls-2" d="M490.18,70.03c-.12,.66-.3,1.31-.55,1.95-.87,2.29-2.44,4.38-3.96,6.15-2.44,2.87-4.12,6.63-7.21,8.9-.15,.11-.29,.21-.44,.31-.65,.46-1.32,.89-1.99,1.31-2.41,1.54-4.83,3.04-6.41,5.64-2.09,3.44-1.28,8.23-.42,12.57,.37,1.86,.75,3.64,.92,5.19,.69,6.45-1.52,8.8-6.38,12.74-1.21,.98-1.64,2.17-1.78,3.45-.32,2.88,.88,6.21-1.84,8.58-1.26,1.09-2.39,1.83-3.41,2.88-.5,.51-.98,1.1-1.43,1.84-.81,1.33-1.35,2.79-1.97,4.21-.38,.87-.79,1.73-1.31,2.53-.3,.46-.63,.89-1,1.3-.89,1.01-1.97,1.9-3.15,2.63-2.1,1.3-4.54,2.12-6.82,2.26-3.2,.2-7.47,2.42-10.32,.13-1.16-.93-1.71-2.32-2.27-3.6-.4-.91-.89-3.93-4.86-7.9-2.52-2.5-1.65-5.3-1.92-8.57-.13-1.54-.6-2.88-1.22-4.14-.41-.83-.88-1.62-1.35-2.4-1.15-1.89-2.35-3.73-2.81-5.94-.25-1.17-.29-2.44-.02-3.87,.79-4.16,3.09-7.84,3.3-11.72,.1-1.77-.24-3.58-1.35-5.5-1.83-3.18-4.89-5.3-6.27-8.84-1.12-2.87-.5-7.67-3.14-9.77-2.69-2.14-6.48,.15-9.53-2.16-3.4-2.57-5.59-3.14-9.6-1.01-4.12,2.19-6.89,1.56-10.97,1-2.86-.4-5.29-.34-7.27-1.28-1.21-.57-2.24-1.51-3.1-3.15-.1-.18-.19-.36-.28-.55-.78-1.7-1.92-2.99-3.11-4.21-1.91-1.96-3.93-3.72-4.75-6.66-1.11-4.01-2.23-7.43-.82-11.4,.09-.25,.19-.51,.3-.76,1.44-3.35,1.35-7.39,3.06-10.54,.35-.64,.76-1.21,1.22-1.75,1.79-2.12,4.26-3.62,6.01-5.79,1.94-2.41,3.73-4.94,5.66-7.36,.62-.77,1.24-1.53,1.89-2.28h0c.43-.5,.88-.98,1.33-1.46,1.31-1.37,2.67-2.38,4.19-3.42,2.16-1.5,3.4-1.23,6.08-1.1,3.11,.16,6.2-.11,9.24-.84,2.81-.68,5.4-2.43,8.23-2.81,3.66-.51,7.1,.36,7.74,4.33,.24,1.49-.62,3.65,.69,4.8,1.62,1.42,5.41,.53,7.52,1.72,.75,.42,1.59,1.18,2.48,1.82h0c.89,.65,1.83,1.19,2.77,1.19,2.43-.01,4.22-3.16,6.29-4.11,4.23-1.93,7.56,1.78,11.3,3.14,1.59,.58,3.86,1.34,5.54,1.41,1.48,.06,2.8-.64,4.23-.72,2.8-.16,5.28,1.39,5.46,4.53,.16,2.75-1.07,4.25,.2,7,.38,.83,.84,1.61,1.31,2.38,.76,1.24,1.57,2.45,2.18,3.82,1.65,3.7,2.89,8.55,5.75,11.46,.21,.21,.42,.4,.64,.58,1.22,1.01,2.63,1.7,3.72,2.87,.08,.08,.14,.16,.21,.24,1.03,1.22,1.74,2.84,2.71,4.05,.12,.15,.24,.28,.36,.41,1.9,2.03,3.8,1.61,6.56,.82,2.65-.76,5.87-2.2,6.08,1.47,.04,.69,0,1.36-.12,2.02Z"/><path class="cls-2" d="M493,116.97c.4-2.5-3.49-3.14-4.2-.7-.38,1.32-1.39,2.63-3.82,2.94-5.27,.67-6.32-1.34-7.03,3.36s0,5.37-1.41,6.71-3.86,.34-2.11,4.36,.7,5.03,2.46,5.7,3.51,.34,5.27-2.01,1.76-5.03,3.86-8.39,3.16-5.7,4.92-7.72c.79-.91,1.79-2.63,2.05-4.25Z"/></g><g><path class="cls-5" d="M595.86,65.07s-41.01-7.09-46.11-6.87-2.88,2.88-1.11,4.21,9.53,6.65,17.29,7.32,25.94-2.44,28.16-2.66,3.77-1.11,1.77-2Z"/><path class="cls-5" d="M614.37,65.07s41.01-7.09,46.11-6.87,2.88,2.88,1.11,4.21-9.53,6.65-17.29,7.32-25.94-2.44-28.16-2.66-3.77-1.11-1.77-2Z"/><g><polyline class="cls-1" points="597.19 60.86 577.46 44.23 571.91 20.73 553.51 7.87"/><path class="cls-1" d="M596.3,70.39l-20.4,14.63-4.21,29.93s-21.95,19.07-33.25,18.84"/><path class="cls-1" d="M598.96,74.82l-16.18,24.61,4.43,27.49s-10.2,24.39-27.05,35.03"/><path class="cls-1" d="M596.85,31.7s5.21,5.87,5.43,10.75"/><polyline class="cls-1" points="613.04 60.86 632.77 44.23 638.31 20.73 656.71 7.87"/><path class="cls-1" d="M613.92,70.39l20.4,14.63,4.21,29.93s21.95,19.07,33.25,18.84"/><path class="cls-1" d="M611.26,74.82l16.18,24.61-4.43,27.49s10.2,24.39,27.05,35.03"/><path class="cls-1" d="M613.37,31.7s-5.21,5.87-5.43,10.75"/></g><g><ellipse class="cls-5" cx="605.3" cy="48.77" rx="5.54" ry="2.99"/><path class="cls-5" d="M605.43,74.38c.93,0,3.7-2.66,4.17-4.21s.23-7.09,0-9.53,0-4.43-.93-5.54-3.24,.22-3.24,.22h-.25s-2.32-1.33-3.24-.22-.69,3.1-.93,5.54-.46,7.98,0,9.53,3.24,4.21,4.17,4.21h.25Z"/><path class="cls-5" d="M608.68,78.14c0,.9-1.46,3.11-3.33,3.11s-3.43-2.21-3.43-3.11,1.46-.14,3.33-.14,3.43-.76,3.43,.14Z"/><path class="cls-5" d="M608.13,84.43c0,.84-.78,2.91-2.78,2.91-2.21,0-2.87-2.07-2.87-2.91s1.22-.13,2.78-.13,2.87-.71,2.87,.13Z"/><path class="cls-5" d="M608.24,91.28c0,.78-.81,2.72-2.89,2.72-2.29,0-2.98-1.94-2.98-2.72s1.27-.12,2.89-.12,2.98-.66,2.98,.12Z"/><path class="cls-5" d="M608.13,97.93c0,.78-.78,2.72-2.78,2.72-2.21,0-2.87-1.94-2.87-2.72s1.22-.12,2.78-.12,2.87-.66,2.87,.12Z"/><path class="cls-5" d="M607.91,104.3c0,.67-.72,2.33-2.56,2.33-2.03,0-2.64-1.66-2.64-2.33s1.13-.1,2.56-.1,2.64-.57,2.64,.1Z"/><path class="cls-5" d="M607.26,109.98c0,.5-.54,1.75-1.92,1.75-1.52,0-1.98-1.24-1.98-1.75s.84-.08,1.92-.08,1.98-.43,1.98,.08Z"/></g></g><g><g><path class="cls-7" d="M41.45,15.01h14.39l-23.03,53.58h-8.29L0,15.01H14.97l13.47,33.59L41.45,15.01Z"/><path class="cls-7" d="M111.12,44.72h-39.95c.81,8.57,6.79,13.59,14.74,13.59,4.38,0,9.67-1.83,13.7-6.74l8.29,6.85c-5.99,7.88-14.62,11.31-23.03,11.31-16,0-27.4-11.65-27.4-27.76s11.63-28.1,27.4-28.1,26.37,10.85,26.37,28.22c0,.8-.12,1.71-.12,2.63Zm-39.72-7.88h26.37c-1.15-8.23-6.22-12.45-12.78-12.45s-12.21,4.23-13.59,12.45Z"/><path class="cls-7" d="M118.83,41.86c0-15.99,11.51-27.99,28.33-27.99,7.14,0,13.13,2.06,17.85,5.48l-6.91,9.71c-2.76-1.83-6.22-2.97-10.36-2.97-8.52,0-14.97,5.94-14.97,15.77s6.45,15.65,14.97,15.65c4.15,0,7.6-1.03,10.36-2.97l6.91,9.71c-4.72,3.54-10.71,5.48-17.85,5.48-16.81,0-28.33-12-28.33-27.88Z"/><path class="cls-7" d="M208.41,65.28c-2.07,1.94-7.14,4.46-13.13,4.46-10.36,0-15.54-6.85-15.54-16.91V27.12h-8.06v-6.97l19.34-15.77h2.99V15.7h13.7v11.42h-13.7v21.59c0,6.85,1.73,8.8,6.1,8.8,1.61,0,3.8-.69,5.18-1.49l3.11,9.25Z"/><path class="cls-7" d="M214.52,41.86c0-15.99,11.63-27.99,27.75-27.99s27.86,12,27.86,27.99-11.63,27.88-27.86,27.88-27.75-12-27.75-27.88Zm41.57,0c0-9.71-6.22-15.65-13.7-15.65s-13.93,5.94-13.93,15.65,6.33,15.65,13.93,15.65,13.7-5.94,13.7-15.65Z"/><path class="cls-7" d="M314.35,14.1v13.48c-1.38-.34-2.76-.46-4.26-.46-6.33,.46-11.86,3.77-13.93,11.2v30.27h-15.89V15.01h15.31v9.6h.23c3.68-7.08,9.9-10.28,16.12-10.62,.81-.11,1.73,0,2.42,.11Z"/></g><g><path class="cls-6" d="M128.94,110.79h13.94v53.58h-13.94v-6.4l-.34-.23c-3.77,5.14-9.48,7.77-15.99,7.77-15.08,0-24.33-11.54-24.33-27.88s9.25-27.99,24.33-27.99c6.63,0,12.45,2.74,16.11,8l.23-.11v-6.74Zm-.23,32.33v-11.08c-1.71-6.74-6.97-10.05-12.91-10.05-7.77,0-13.71,5.83-13.71,15.65s5.94,15.65,13.71,15.65c5.94,0,11.2-3.31,12.91-10.17Z"/><path class="cls-6" d="M184.46,161.05c-2.06,1.94-7.08,4.46-13.02,4.46-10.28,0-15.42-6.85-15.42-16.91v-25.71h-8v-6.97l19.19-15.76h2.97v11.31h13.59v11.42h-13.59v21.59c0,6.86,1.71,8.8,6.05,8.8,1.6,0,3.77-.69,5.14-1.49l3.08,9.25Z"/><path class="cls-6" d="M191.09,164.37V78.68h14.17v85.68h-14.17Z"/><path class="cls-6" d="M252.55,110.79h13.94v53.58h-13.94v-6.4l-.34-.23c-3.77,5.14-9.48,7.77-15.99,7.77-15.08,0-24.33-11.54-24.33-27.88s9.25-27.99,24.33-27.99c6.63,0,12.45,2.74,16.11,8l.23-.11v-6.74Zm-.23,32.33v-11.08c-1.71-6.74-6.97-10.05-12.91-10.05-7.77,0-13.71,5.83-13.71,15.65s5.94,15.65,13.71,15.65c5.94,0,11.2-3.31,12.91-10.17Z"/><path class="cls-6" d="M272.54,158.88l4.91-8.57c3.77,3.54,10.28,5.83,14.85,5.83,5.37,0,9.37-2.17,9.37-6.05,0-3.08-2.29-4.57-8-6.74l-6.17-2.4c-8.45-3.2-12.34-8.34-12.34-15.65,0-9.94,8.45-15.99,20.68-15.99,6.4,0,12.91,2.63,16.22,5.71l-4.68,7.65c-3.54-2.74-8-4.11-11.54-4.11-5.48,0-8.34,2.63-8.34,5.71,0,2.74,1.83,4.34,7.54,6.63l6.85,2.74c8.68,3.43,12.45,7.54,12.45,14.97,0,10.62-9.94,17.02-21.02,17.02-9.14,0-16.57-3.08-20.79-6.74Z"/></g></g></svg>